<?xml version="1.0" encoding="UTF-8"?>
<svg version="1.1" xmlns="http://www.w3.org/2000/svg" width="512" height="512">
<path d="M0 0 C0.84064499 0.00007553 1.68128998 0.00015106 2.54740906 0.00022888 C3.45062393 0.00539017 4.35383881 0.01055145 5.28442383 0.01586914 C6.21241287 0.01728409 7.14040192 0.01869904 8.09651184 0.02015686 C11.06152566 0.02575602 14.02646407 0.03830835 16.99145508 0.05102539 C19.00121961 0.0560405 21.01098533 0.06060339 23.02075195 0.06469727 C27.9485154 0.07572518 32.87622245 0.09298922 37.80395508 0.11352539 C37.79235352 0.99685547 37.78075195 1.88018555 37.76879883 2.7902832 C37.75977539 3.95398438 37.75075195 5.11768555 37.74145508 6.31665039 C37.72985352 7.46810547 37.71825195 8.61956055 37.70629883 9.8059082 C37.94874052 18.01740815 41.01693106 23.26627858 46.61645508 29.16430664 C52.94219309 34.80099105 60.03222614 36.48211701 68.34692383 36.31665039 C77.59588794 35.55203015 83.56998433 31.8647887 89.80395508 25.11352539 C92.59780891 21.12066514 94.9643284 16.94738331 97.30395508 12.67602539 C98.52196802 10.51024613 99.74067842 8.34485891 100.96020508 6.17993164 C101.74621094 4.75596069 101.74621094 4.75596069 102.5480957 3.30322266 C103.80395508 1.11352539 103.80395508 1.11352539 104.80395508 0.11352539 C107.57334474 0.01834736 110.31772667 -0.01201726 113.08740234 0 C114.38972305 -0.00021904 114.38972305 -0.00021904 115.71835327 -0.0004425 C118.60238094 0.00025693 121.48634487 0.00805077 124.37036133 0.01586914 C126.36433375 0.01773321 128.35830662 0.01915716 130.35227966 0.02015686 C135.6114121 0.02398291 140.87051711 0.03381394 146.12963867 0.04486084 C151.49177682 0.05507309 156.85391939 0.05965408 162.21606445 0.06469727 C172.74537341 0.07543613 183.27466197 0.09251359 193.80395508 0.11352539 C194.22840157 0.8852861 194.22840157 0.8852861 194.66142273 1.67263794 C195.96057182 4.03179496 197.26309494 6.38907298 198.56567383 8.74633789 C199.01068237 9.55562744 199.45569092 10.36491699 199.91418457 11.19873047 C205.91608279 22.04566723 211.5026097 31.96589208 224.05395508 35.80102539 C233.8341385 36.91240987 242.99855156 35.96693876 251.17895508 29.92602539 C259.20079917 21.33119244 260.8705727 11.59462512 260.80395508 0.11352539 C266.53309311 0.03917547 272.26194809 -0.01517133 277.99145508 -0.05126953 C279.93909601 -0.0663236 281.88670323 -0.08677141 283.83422852 -0.11279297 C286.63932636 -0.14932514 289.44397462 -0.16623494 292.24926758 -0.17944336 C293.54805344 -0.20266914 293.54805344 -0.20266914 294.87307739 -0.22636414 C300.84244644 -0.22801287 304.77461136 0.93189926 309.70239258 4.48071289 C313.41066825 8.26747059 314.27830254 11.31516242 314.49145508 16.61352539 C314.24593432 21.58103846 313.61921408 25.06046305 310.27661133 28.81274414 C304.85584553 33.60084762 299.67868875 33.48035901 292.80395508 33.11352539 C292.68262207 34.26288574 292.56128906 35.41224609 292.4362793 36.59643555 C291.88484171 40.98255927 290.86786936 45.13329397 289.68676758 49.38696289 C289.47396652 50.17134232 289.26116547 50.95572174 289.04191589 51.76387024 C288.58239324 53.45578999 288.12048102 55.14706222 287.65640259 56.83773804 C286.39887087 61.42012939 285.15942551 66.00742483 283.91723633 70.59399414 C283.65962021 71.54327286 283.40200409 72.49255157 283.13658142 73.47059631 C280.64000847 82.68318636 278.21649624 91.91430239 275.80807495 101.15026855 C275.11887565 103.79174813 274.42769464 106.43270113 273.73583984 109.07348633 C271.8250213 116.36868507 269.91687718 123.66441195 268.03657532 130.96754456 C267.31870184 133.74986345 266.59393041 136.53035365 265.86752319 139.31045532 C265.38531738 141.16594477 264.91243729 143.02385016 264.43994141 144.88183594 C262.24277049 153.26246488 260.16041596 160.71895723 253.36645508 166.48852539 C252.62524414 167.13563477 251.8840332 167.78274414 251.12036133 168.44946289 C246.27905666 171.92736473 241.89459404 172.40850125 236.05683899 172.39440918 C235.28374757 172.40035142 234.51065616 172.40629367 233.71413773 172.41241598 C231.12725215 172.42973962 228.54055223 172.43280212 225.95361328 172.43579102 C224.09719957 172.44505102 222.24078966 172.45510084 220.38438416 172.46588135 C215.34284869 172.49209989 210.30136647 172.50501366 205.25977349 172.51390266 C202.107966 172.51976938 198.95617298 172.52798002 195.80437279 172.53691101 C185.93723313 172.56425423 176.07012664 172.58359035 166.20295173 172.59131479 C154.82374075 172.60027253 143.44501069 172.6353544 132.06594592 172.69331598 C123.26320394 172.73659348 114.46059704 172.7567257 105.65774983 172.75939703 C100.40352993 172.76149016 95.14976231 172.77324078 89.89565468 172.80903625 C84.95014316 172.84207414 80.00542202 172.84627291 75.05983925 172.82875824 C73.24988686 172.82722146 71.43989132 172.83585096 69.63004684 172.85567474 C59.87219209 172.95624367 51.51411645 172.95339892 43.80395508 166.11352539 C39.0849879 161.1481757 36.75771873 156.26360044 35.11645508 149.67602539 C34.76490356 148.36347778 34.76490356 148.36347778 34.40625 147.02441406 C33.85301674 144.95256832 33.30787666 142.8785524 32.76879883 140.80297852 C31.65947513 136.56105045 30.51487269 132.32937491 29.36645508 128.09790039 C23.99722831 108.27767791 18.7603296 88.42292672 13.59619141 68.54833984 C13.16827966 66.904644 12.74014276 65.26100676 12.31176758 63.61743164 C12.10660019 62.82939651 11.9014328 62.04136139 11.69004822 61.22944641 C9.98592911 54.72253128 8.18550599 48.2438864 6.3208313 41.78114319 C5.47311877 38.79541037 4.80395508 36.234342 4.80395508 33.11352539 C4.15168945 33.15993164 3.49942383 33.20633789 2.82739258 33.25415039 C-3.10593325 33.4991845 -6.5546623 33.20236246 -11.19604492 29.11352539 C-15.53061295 24.31035541 -16.509258 20.70127206 -16.40698242 14.39086914 C-15.95564631 9.5181107 -13.77699422 6.42767515 -10.19604492 3.30102539 C-6.63563771 0.70489513 -4.28901325 -0.01287992 0 0 Z M65.80395508 65.11352539 C64.31247546 68.09648463 64.65190626 70.81819247 64.62695312 74.14599609 C64.62038193 74.86977448 64.61381073 75.59355286 64.60704041 76.33926392 C64.58729777 78.73927917 64.57564258 81.13923182 64.56567383 83.53930664 C64.5615983 84.35867392 64.55752277 85.17804119 64.55332375 86.02223778 C64.53245865 90.35922367 64.51815899 94.69617788 64.50878906 99.03320312 C64.49772504 103.51240481 64.46332687 107.99110964 64.42361736 112.47013569 C64.39746847 115.91455508 64.38909878 119.35885579 64.38550758 122.80336571 C64.38063693 124.45438174 64.36900926 126.1053923 64.35046959 127.75631142 C64.32611434 130.068898 64.3270359 132.38019545 64.33398438 134.69287109 C64.32811813 136.00810257 64.32225189 137.32333405 64.31620789 138.67842102 C64.88440063 142.68008705 65.9337661 144.31729747 68.80395508 147.11352539 C72.49374928 148.36962554 74.06782337 148.45705352 77.61645508 146.80102539 C79.89311134 145.29773951 79.89311134 145.29773951 80.80395508 143.11352539 C80.92266409 140.6939848 80.98223093 138.30228052 80.99682617 135.8815918 C81.00500366 135.13669998 81.01318115 134.39180817 81.02160645 133.62434387 C81.04645829 131.15460009 81.06297453 128.68491372 81.07739258 126.21508789 C81.08271626 125.37240734 81.08803993 124.52972679 81.09352493 123.66151047 C81.12025375 119.20249084 81.13963075 114.7434992 81.15405273 110.28442383 C81.17071348 105.67498368 81.2155033 101.06625674 81.26642418 96.45708656 C81.30004818 92.91577312 81.31162469 89.37463012 81.31727982 85.83317184 C81.32400421 84.1338594 81.33925714 82.43455863 81.36317062 80.73540115 C81.39472756 78.35775496 81.39487445 75.98204793 81.38745117 73.60424805 C81.40385651 72.90176437 81.42026184 72.1992807 81.43716431 71.47550964 C81.38972423 67.76573574 81.05515382 66.37112045 78.42373657 63.67269897 C73.45458895 60.71529061 70.33777162 61.83910233 65.80395508 65.11352539 Z M115.80395508 67.11352539 C115.31255394 69.81980654 115.12690555 71.89695831 115.17285156 74.59423828 C115.16569626 75.32981461 115.15854095 76.06539093 115.15116882 76.82325745 C115.13431524 79.24487173 115.15366044 81.66462602 115.17504883 84.08618164 C115.1742199 85.77339328 115.17175961 87.46060484 115.16773987 89.14781189 C115.1648843 92.67935569 115.17956045 96.21026441 115.20703125 99.74169922 C115.24114035 104.26700984 115.23508518 108.79118702 115.21636868 113.31655216 C115.20579842 116.79875631 115.21473618 120.28069687 115.22975349 123.76287651 C115.23493386 125.43142349 115.23445525 127.09999801 115.22820854 128.76854134 C115.22275473 131.10036522 115.24313286 133.43056794 115.27050781 135.76220703 C115.26398193 136.45062683 115.25745605 137.13904663 115.25073242 137.84832764 C115.31723306 141.18133319 115.60355535 142.8577395 117.68495178 145.51438904 C120.20264238 147.41440051 121.64498632 148.03647737 124.80395508 148.11352539 C128.29030109 146.49196911 129.64697702 145.34899247 131.80395508 142.11352539 C132.11697496 138.80310986 132.11697496 138.80310986 132.07861328 134.95166016 C132.08372421 134.22612946 132.08883514 133.50059875 132.09410095 132.75308228 C132.10800632 130.35361493 132.1070395 127.95443451 132.10473633 125.55493164 C132.10862278 123.88728224 132.11295735 122.21963382 132.11772156 120.55198669 C132.12518581 117.05578402 132.12489105 113.55968232 132.11962891 110.06347656 C132.11383433 105.58314763 132.13076379 101.10323211 132.15397358 96.62297153 C132.16870567 93.17857954 132.16958334 89.73428722 132.16646385 86.28986931 C132.16697734 84.63805256 132.17222029 82.98623027 132.18227577 81.33444405 C132.19461283 79.02428454 132.18786553 76.71493175 132.17626953 74.40478516 C132.17689896 73.09034927 132.17752838 71.77591339 132.17817688 70.42164612 C131.78480717 66.9442579 131.24853289 65.55800957 128.80395508 63.11352539 C126.95978263 62.24361787 126.95978263 62.24361787 124.92895508 62.05102539 C123.94282227 61.87893555 123.94282227 61.87893555 122.93676758 61.70336914 C119.41985627 62.37969824 118.02500498 64.3979229 115.80395508 67.11352539 Z M166.80395508 66.11352539 C165.33353729 69.05436098 165.66037285 71.67921328 165.64282227 74.96240234 C165.63785736 75.66667358 165.63289246 76.37094482 165.6277771 77.09655762 C165.61314597 79.4316505 165.6063514 81.76667541 165.60083008 84.10180664 C165.59507874 85.72364809 165.589321 87.34548952 165.58355713 88.96733093 C165.57304398 92.37112749 165.56720359 95.77490042 165.5637207 99.17871094 C165.55823991 103.53675719 165.53422226 107.89449039 165.50574875 112.25243855 C165.48710758 115.60421149 165.48191595 118.95590932 165.48038483 122.30772972 C165.47736033 123.91407162 165.46933862 125.52041225 165.45619965 127.12670326 C165.43911025 129.37686444 165.44102624 131.62626478 165.44750977 133.87646484 C165.44386414 135.15616653 165.44021851 136.43586823 165.4364624 137.75434875 C165.83128631 141.36335466 166.65145993 143.22691355 168.80395508 146.11352539 C171.32695424 148.02752475 172.61154187 148.117534 175.80395508 148.05102539 C179.66794704 146.8435279 180.6440549 145.50946562 182.80395508 142.11352539 C183.39400305 138.65439253 183.39400305 138.65439253 183.28979492 134.81640625 C183.29359161 134.10033707 183.29738831 133.38426788 183.30130005 132.64649963 C183.30868293 130.29000421 183.28735862 127.93475412 183.26489258 125.57836914 C183.2625069 123.93600102 183.26160309 122.29363015 183.26211548 120.65126038 C183.25899149 117.213947 183.24245614 113.77705192 183.21557617 110.33984375 C183.18157005 105.93584684 183.17394861 101.5323086 183.17546654 97.12819576 C183.17492252 93.73868947 183.16395078 90.34928325 183.14946365 86.95981026 C183.1431041 85.3359204 183.13915873 83.71201923 183.13767624 82.0881176 C183.13333572 79.81896547 183.11581988 77.55029783 183.09448242 75.28125 C183.08685883 73.99061142 183.07923523 72.69997284 183.07138062 71.370224 C182.82084593 68.31922153 182.49129613 66.62521143 180.80395508 64.11352539 C175.34538606 60.34899503 171.36456006 61.80628735 166.80395508 66.11352539 Z M218.80395508 64.11352539 C216.31650118 67.84470624 216.5393715 69.79935358 216.51342773 74.25952148 C216.5033519 75.3454081 216.5033519 75.3454081 216.49307251 76.45323181 C216.47406524 78.84787855 216.47016691 81.2422454 216.46801758 83.63696289 C216.46159125 85.30221675 216.45486301 86.96746947 216.44784546 88.63272095 C216.43586568 92.12472145 216.43216532 95.61662297 216.43334961 99.10864258 C216.43355277 103.58000648 216.40625673 108.05073461 216.37180519 112.52194786 C216.34954994 115.96209621 216.34551165 119.40209126 216.34656906 122.84230423 C216.34421079 124.49051732 216.33537448 126.1387345 216.31990433 127.78687668 C216.30027241 130.09461506 216.30607027 132.40097897 216.31811523 134.70874023 C216.3152652 136.02095551 216.31241516 137.33317078 216.30947876 138.68515015 C216.88546876 142.67868792 217.93978635 144.32055799 220.80395508 147.11352539 C224.3765112 148.32971471 226.05325218 148.42063112 229.55395508 146.98852539 C232.22880095 144.75948716 232.77568085 143.41948618 233.80395508 140.11352539 C234.10548415 136.81467706 234.10548415 136.81467706 234.06274414 133.19946289 C234.06624878 132.52401428 234.06975342 131.84856567 234.07336426 131.15264893 C234.08213036 128.9311683 234.07635072 126.71000897 234.06958008 124.48852539 C234.0709282 122.9382318 234.07286997 121.38793863 234.07537842 119.83764648 C234.07832274 116.59297652 234.07405436 113.34841688 234.06469727 110.10375977 C234.05330309 105.95099098 234.05986628 101.79848074 234.07184219 97.64572144 C234.07907951 94.44578107 234.07676427 91.2459017 234.07158661 88.04595947 C234.07025529 86.51499399 234.07187965 84.98402292 234.07654572 83.45306396 C234.08164181 81.31109001 234.07385785 79.16953105 234.06274414 77.02758789 C234.06115295 75.81022949 234.05956177 74.59287109 234.05792236 73.33862305 C233.73045119 69.18010909 232.96627627 66.27584658 229.99145508 63.30102539 C225.97156168 61.11879755 222.56523565 61.64923812 218.80395508 64.11352539 Z " fill="#7B7A7A" transform="translate(107.196044921875,179.886474609375)"/>
<path d="M0 0 C6.1939647 2.83954861 9.50018412 6.37393589 12.625 12.3125 C13.47566887 13.84034164 14.32728682 15.36765512 15.1796875 16.89453125 C15.85596191 18.12743896 15.85596191 18.12743896 16.54589844 19.38525391 C18.62743059 23.12823734 20.80772091 26.81075129 22.98266602 30.5 C29.11839344 40.91522567 35.07156934 51.42633115 40.95556641 61.98535156 C44.46112275 68.27070069 48.00955973 74.5272395 51.625 80.75 C52.05756104 81.49854248 52.49012207 82.24708496 52.93579102 83.01831055 C55.36053745 87.20790121 57.82092574 91.37321133 60.3125 95.5234375 C61.41683416 97.39052594 62.52100427 99.25771143 63.625 101.125 C64.14658691 101.97803711 64.66817383 102.83107422 65.20556641 103.70996094 C68.73768792 109.72887574 71.05584717 115.42708951 69.43359375 122.453125 C66.62606487 127.5176869 63.58720609 131.49568777 58.0625 133.8125 C52.142259 134.35070373 48.07984309 134.35053481 43 131 C38.14618479 126.19835826 34.8342204 120.6262233 31.5625 114.6875 C30.50986141 112.81208063 29.45643947 110.93710077 28.40234375 109.0625 C27.57452393 107.58330078 27.57452393 107.58330078 26.72998047 106.07421875 C23.73651051 100.75474744 20.67923101 95.47224278 17.625 90.1875 C16.99352051 89.09276367 16.36204102 87.99802734 15.71142578 86.87011719 C12.05344011 80.53358105 8.37183234 74.21145915 4.67260742 67.89892578 C-2.58234108 55.51641202 -9.63520309 43.03146779 -16.59643555 30.48168945 C-17.56426583 28.77043621 -18.57819357 27.08472191 -19.62817383 25.42260742 C-22.26097704 20.7731491 -22.24014697 16.41686711 -21.375 11.3125 C-17.64653928 2.33029918 -9.42560644 -2.00376528 0 0 Z " fill="#7B7A7A" transform="translate(286,70)"/>
<path d="M0 0 C4.85965186 1.68394716 8.16672359 4.75008538 11 9 C13.1653266 15.4959798 12.57405774 20.46066204 9.625 26.5 C6.24004368 32.76727411 2.59679879 38.89212193 -1.046875 45.01171875 C-4.48038562 50.78957766 -7.83357434 56.61319348 -11.1875 62.4375 C-12.14354126 64.09676514 -12.14354126 64.09676514 -13.11889648 65.78955078 C-14.42762416 68.06123665 -15.73613484 70.33304755 -17.04443359 72.60498047 C-18.95149581 75.91579285 -20.86012956 79.22569261 -22.76953125 82.53515625 C-23.38626709 83.60435303 -24.00300293 84.6735498 -24.63842773 85.77514648 C-25.87499798 87.91729158 -27.11278247 90.05873622 -28.35180664 92.19946289 C-31.28188207 97.26581918 -34.19835551 102.33864838 -37.06854248 107.43914795 C-38.42209442 109.84259235 -39.78313771 112.24175442 -41.14477539 114.640625 C-42.10059294 116.331815 -43.04556286 118.02912133 -43.99023438 119.7265625 C-44.57353516 120.75265625 -45.15683594 121.77875 -45.7578125 122.8359375 C-46.2645752 123.73876465 -46.77133789 124.6415918 -47.29345703 125.57177734 C-50.27208922 129.81004283 -54.0240935 132.57831243 -59 134 C-64.95437561 134.67408026 -69.1221361 133.28725611 -74 130 C-78.57266369 125.19284074 -79.39900701 121.12821754 -79.31738281 114.68457031 C-78.77991298 110.13840243 -76.71544189 106.74143403 -74.375 102.875 C-73.88281982 102.02228516 -73.39063965 101.16957031 -72.88354492 100.29101562 C-71.27546872 97.51527418 -69.63825867 94.75801445 -68 92 C-66.9028031 90.11843657 -65.80777189 88.23560869 -64.71484375 86.3515625 C-62.3974482 82.36159435 -60.06916152 78.37825167 -57.734375 74.3984375 C-53.79510394 67.66832837 -49.92461901 60.89953278 -46.0625 54.125 C-44.72288935 51.77721071 -43.3829256 49.42962297 -42.04296875 47.08203125 C-41.71098984 46.50037704 -41.37901093 45.91872284 -41.03697205 45.31944275 C-37.32317453 38.81317258 -33.60512869 32.30942364 -29.875 25.8125 C-29.27179932 24.75627441 -28.66859863 23.70004883 -28.04711914 22.61181641 C-14.16376301 -1.52892194 -14.16376301 -1.52892194 0 0 Z " fill="#7B7A7A" transform="translate(236,70)"/>
<path d="M0 0 C2.97 0 5.94 0 9 0 C9.42152344 1.14339844 9.84304688 2.28679687 10.27734375 3.46484375 C10.83058521 4.95578259 11.38397847 6.44666511 11.9375 7.9375 C12.21529297 8.69224609 12.49308594 9.44699219 12.77929688 10.22460938 C13.91753451 13.88779139 13.91753451 13.88779139 16 17 C18.31 11.39 20.62 5.78 23 0 C25.97 0 28.94 0 32 0 C31.34 1.32 30.68 2.64 30 4 C29.72620714 6.6104631 29.72620714 6.6104631 29.8046875 9.421875 C29.81113281 10.44667969 29.81757813 11.47148437 29.82421875 12.52734375 C29.84097656 13.59082031 29.85773438 14.65429688 29.875 15.75 C29.88402344 16.82894531 29.89304687 17.90789062 29.90234375 19.01953125 C29.92588695 21.67991278 29.95877201 24.33984336 30 27 C30.66 27.33 31.32 27.66 32 28 C32 28.99 32 29.98 32 31 C28.7 31 25.4 31 22 31 C22 30.01 22 29.02 22 28 C22.66 28 23.32 28 24 28 C23.67 23.05 23.34 18.1 23 13 C21.02 17.62 19.04 22.24 17 27 C15.35 26.67 13.7 26.34 12 26 C10.76242088 23.52789751 9.96516119 21.54201086 9.1875 18.9375 C8.465625 16.648125 7.74375 14.35875 7 12 C7 16.95 7 21.9 7 27 C7.66 27.33 8.32 27.66 9 28 C9 28.99 9 29.98 9 31 C6.03 31 3.06 31 0 31 C0 30.01 0 29.02 0 28 C0.66 28 1.32 28 2 28 C2 19.75 2 11.5 2 3 C1.34 3 0.68 3 0 3 C0 2.01 0 1.02 0 0 Z " fill="#7B7A7A" transform="translate(355,403)"/>
<path d="M0 0 C5.02577127 -0.77986106 5.02577127 -0.77986106 8 0 C10.60177539 2.64984514 12.22683876 5.75836157 14 9 C14.94979165 10.52618237 15.90746309 12.04750523 16.875 13.5625 C17.57625 14.696875 18.2775 15.83125 19 17 C19.33 12.38 19.66 7.76 20 3 C19.34 3 18.68 3 18 3 C18 2.01 18 1.02 18 0 C20.97 0 23.94 0 27 0 C26.67 0.99 26.34 1.98 26 3 C25.34 3 24.68 3 24 3 C24 12.24 24 21.48 24 31 C19 30 19 30 17.42260742 28.14233398 C16.98795166 27.35157471 16.5532959 26.56081543 16.10546875 25.74609375 C15.62529297 24.89208984 15.14511719 24.03808594 14.65039062 23.15820312 C14.16763672 22.26037109 13.68488281 21.36253906 13.1875 20.4375 C12.43436523 19.08495117 12.43436523 19.08495117 11.66601562 17.70507812 C10.42894684 15.47835431 9.21247426 13.24021077 8 11 C7.67 16.61 7.34 22.22 7 28 C7.66 28 8.32 28 9 28 C9 28.99 9 29.98 9 31 C6.03 31 3.06 31 0 31 C0 30.01 0 29.02 0 28 C0.66 27.67 1.32 27.34 2 27 C2.05811773 23.25006521 2.09363593 19.50024648 2.125 15.75 C2.14175781 14.68652344 2.15851562 13.62304688 2.17578125 12.52734375 C2.18222656 11.50253906 2.18867187 10.47773438 2.1953125 9.421875 C2.20578613 8.47924805 2.21625977 7.53662109 2.22705078 6.56542969 C1.99119213 3.90048059 1.35661659 2.28136908 0 0 Z " fill="#7B7A7A" transform="translate(38,403)"/>
<path d="M0 0 C2.56314499 -0.08132187 5.12368418 -0.14064175 7.6875 -0.1875 C8.40873047 -0.21263672 9.12996094 -0.23777344 9.87304688 -0.26367188 C14.48087064 -0.32679275 17.31351222 0.20165268 21 3 C22 4 22 4 22.3125 7.75 C22.28978344 11.96013667 21.00752661 13.99247339 18 17 C18.433125 17.62648438 18.86625 18.25296875 19.3125 18.8984375 C19.869375 19.71570313 20.42625 20.53296875 21 21.375 C21.556875 22.18710937 22.11375 22.99921875 22.6875 23.8359375 C24 26 24 26 24 28 C24.66 28 25.32 28 26 28 C26 28.99 26 29.98 26 31 C21.67924294 32.05814459 21.67924294 32.05814459 19 31 C16.87975317 28.03077467 15.28055578 24.99731549 13.67578125 21.72265625 C12.28749751 18.85995366 12.28749751 18.85995366 9.79296875 18.12109375 C9.20128906 18.08113281 8.60960937 18.04117187 8 18 C8.11362262 19.4800841 8.24122908 20.95910074 8.375 22.4375 C8.44460937 23.26121094 8.51421875 24.08492188 8.5859375 24.93359375 C8.72257813 25.61550781 8.85921875 26.29742187 9 27 C9.66 27.33 10.32 27.66 11 28 C11 28.99 11 29.98 11 31 C7.37 31 3.74 31 0 31 C0 30.01 0 29.02 0 28 C0.66 27.67 1.32 27.34 2 27 C2.33 19.08 2.66 11.16 3 3 C2.01 2.67 1.02 2.34 0 2 C0 1.34 0 0.68 0 0 Z M8 3 C8 6.96 8 10.92 8 15 C12.37499134 14.62231709 12.37499134 14.62231709 15.9375 12.25 C17.19673943 10.01887054 17.19673943 10.01887054 16.9375 7.375 C16.20773415 4.9026738 16.20773415 4.9026738 14.1875 3.6875 C11.74616953 2.8001156 11.74616953 2.8001156 8 3 Z " fill="#7B7A7A" transform="translate(143,403)"/>
<path d="M0 0 C2.54232342 -0.08152344 5.08199202 -0.14073716 7.625 -0.1875 C8.33785156 -0.21263672 9.05070313 -0.23777344 9.78515625 -0.26367188 C14.61379315 -0.33012101 17.79249424 0.37903487 22 3 C25.81324562 7.2077193 26.29504966 11.17160644 26.21484375 16.65234375 C25.76748073 21.54080147 24.06159978 24.93840022 20.625 28.375 C16.00466407 31.23520795 11.52646992 31.11642899 6.1875 31.0625 C5.02605469 31.05347656 3.86460937 31.04445313 2.66796875 31.03515625 C1.78753906 31.02355469 0.90710938 31.01195312 0 31 C0 30.01 0 29.02 0 28 C0.66 27.67 1.32 27.34 2 27 C2.33 19.08 2.66 11.16 3 3 C2.01 2.67 1.02 2.34 0 2 C0 1.34 0 0.68 0 0 Z M8 3 C8 10.92 8 18.84 8 27 C14.57049098 27.70778554 14.57049098 27.70778554 17.375 25.1875 C20.61812131 20.82175978 20.49021179 16.22298379 20 11 C18.71336834 7.27553992 18.00757159 5.56837372 14.5625 3.625 C11.79192285 2.84202921 11.79192285 2.84202921 8 3 Z " fill="#7B7A7A" transform="translate(204,403)"/>
<path d="M0 0 C3.58730158 3.27077497 4.85962305 6.67270766 5.41015625 11.37109375 C5.60654661 16.98102701 5.02554112 21.10326479 2.125 25.9375 C-1.06389351 28.82975225 -3.6196783 30.18527252 -7.875 30.4375 C-12.09403405 30.20310922 -14.68494669 28.74778506 -17.875 25.9375 C-20.94286336 19.89633072 -21.20599433 12.03339494 -19.1171875 5.60546875 C-15.07544053 -1.95291633 -7.55563448 -2.7922997 0 0 Z M-12.875 4.9375 C-13.97611689 8.24085066 -14.07726528 10.83582137 -14.125 14.3125 C-14.15078125 15.43398438 -14.1765625 16.55546875 -14.203125 17.7109375 C-13.84197439 21.26225179 -12.99867838 23.10076173 -10.875 25.9375 C-8.42288296 27.12400825 -7.35412656 27.07841958 -4.75 26.3125 C-2.24586288 24.47613278 -1.83630699 22.87135899 -0.875 19.9375 C-0.19694785 13.88786588 -0.04634046 7.95436423 -3.875 2.9375 C-7.87904144 1.1921486 -9.84567904 1.90817904 -12.875 4.9375 Z " fill="#7B7A7A" transform="translate(192.875,404.0625)"/>
<path d="M0 0 C3.63743967 2.12183981 5.47760724 4.121208 7 8 C8.33230187 20.8582622 8.33230187 20.8582622 5.3125 25.6875 C1.79473801 29.20526199 -0.41890453 30.82751686 -5.4375 31.375 C-9.44744213 30.95290083 -11.69929068 30.32549975 -15 28 C-18.34077774 22.54339636 -18.74023554 17.30721241 -18 11 C-17.07965804 7.24728781 -15.44576843 4.52681724 -12.9375 1.5625 C-8.63903887 -0.72391549 -4.76810939 -0.78422852 0 0 Z M-9.25 4.75 C-12.83559682 9.36005306 -12.34824712 14.41911671 -12 20 C-11.18797201 23.18044295 -10.41178231 24.55981892 -8.1875 26.9375 C-5.99384845 28.28040987 -5.99384845 28.28040987 -3.375 27.4375 C-0.60965661 25.76373953 -0.12335488 24.98217976 1 22 C1.35411935 18.89317679 1.35411935 18.89317679 1.3125 15.5625 C1.32925781 14.45003906 1.34601563 13.33757812 1.36328125 12.19140625 C0.96256172 8.6711067 0.12610081 6.8076738 -2 4 C-5.34913541 2.54012046 -6.33430727 2.48223898 -9.25 4.75 Z " fill="#7B7A7A" transform="translate(89,403)"/>
<path d="M0 0 C6.93 0 13.86 0 21 0 C21 2.64 21 5.28 21 8 C19.125 7.6875 19.125 7.6875 17 7 C16.34 6.01 15.68 5.02 15 4 C11.43230448 3.26393501 11.43230448 3.26393501 8 3 C8 6.3 8 9.6 8 13 C10.47266765 12.65555119 10.47266765 12.65555119 13 12 C13.33 11.34 13.66 10.68 14 10 C14.99 10 15.98 10 17 10 C17 13.3 17 16.6 17 20 C16.01 20 15.02 20 14 20 C13.34 19.01 12.68 18.02 12 17 C10.68 16.67 9.36 16.34 8 16 C8 19.63 8 23.26 8 27 C12.05085679 26.75368443 12.05085679 26.75368443 16 26 C17.5899433 24.07935207 17.5899433 24.07935207 18 22 C18.99 22 19.98 22 21 22 C21 24.97 21 27.94 21 31 C14.07 31 7.14 31 0 31 C0 30.01 0 29.02 0 28 C0.66 28 1.32 28 2 28 C2 19.75 2 11.5 2 3 C1.34 3 0.68 3 0 3 C0 2.01 0 1.02 0 0 Z " fill="#7B7A7A" transform="translate(453,403)"/>
<path d="M0 0 C1.2065625 0.0309375 1.2065625 0.0309375 2.4375 0.0625 C2.66937012 0.83964355 2.90124023 1.61678711 3.14013672 2.41748047 C4.19100889 5.9261646 5.25162156 9.43182904 6.3125 12.9375 C6.67730469 14.16082031 7.04210937 15.38414062 7.41796875 16.64453125 C7.77246094 17.81113281 8.12695312 18.97773438 8.4921875 20.1796875 C8.81687012 21.25847168 9.14155273 22.33725586 9.47607422 23.44873047 C10.27202384 26.17671039 10.27202384 26.17671039 12.4375 28.0625 C12.4375 29.0525 12.4375 30.0425 12.4375 31.0625 C8.8075 31.0625 5.1775 31.0625 1.4375 31.0625 C1.4375 30.0725 1.4375 29.0825 1.4375 28.0625 C2.0975 27.7325 2.7575 27.4025 3.4375 27.0625 C2.9425 24.5875 2.9425 24.5875 2.4375 22.0625 C-0.5325 21.7325 -3.5025 21.4025 -6.5625 21.0625 C-6.5625 23.0425 -6.5625 25.0225 -6.5625 27.0625 C-5.9025 27.3925 -5.2425 27.7225 -4.5625 28.0625 C-4.5625 29.0525 -4.5625 30.0425 -4.5625 31.0625 C-8.1925 31.0625 -11.8225 31.0625 -15.5625 31.0625 C-15.5625 30.0725 -15.5625 29.0825 -15.5625 28.0625 C-15.11342285 27.61922363 -14.6643457 27.17594727 -14.20166016 26.71923828 C-12.04712732 24.54160054 -11.37374989 22.42975287 -10.3359375 19.5546875 C-9.9440625 18.48605469 -9.5521875 17.41742188 -9.1484375 16.31640625 C-8.74882812 15.20136719 -8.34921875 14.08632813 -7.9375 12.9375 C-7.13507107 10.72574178 -6.33050102 8.51475878 -5.5234375 6.3046875 C-5.17071777 5.3235498 -4.81799805 4.34241211 -4.45458984 3.33154297 C-3.1752186 0.07744436 -3.1752186 0.07744436 0 0 Z M-1.5625 8.0625 C-3.85295014 12.87459901 -3.85295014 12.87459901 -4.5625 18.0625 C-2.5825 18.0625 -0.6025 18.0625 1.4375 18.0625 C0.7775 14.7625 0.1175 11.4625 -0.5625 8.0625 C-0.8925 8.0625 -1.2225 8.0625 -1.5625 8.0625 Z " fill="#7B7A7A" transform="translate(406.5625,402.9375)"/>
<path d="M0 0 C3.3 0 6.6 0 10 0 C10 0.99 10 1.98 10 3 C9.34 3 8.68 3 8 3 C8.33 10.26 8.66 17.52 9 25 C13.63788086 27.47956318 13.63788086 27.47956318 17 26 C18.38705156 21.83884532 18.18424545 17.92034238 18.1875 13.5625 C18.20586914 12.27375977 18.20586914 12.27375977 18.22460938 10.95898438 C18.22654297 10.12818359 18.22847656 9.29738281 18.23046875 8.44140625 C18.23457764 7.68545166 18.23868652 6.92949707 18.24291992 6.15063477 C18.07766021 3.58199009 18.07766021 3.58199009 16 0 C19.3 0 22.6 0 26 0 C26 0.99 26 1.98 26 3 C25.34 3 24.68 3 24 3 C24.01571045 3.57443848 24.0314209 4.14887695 24.04760742 4.74072266 C24.11035513 7.36871309 24.14911506 9.99654537 24.1875 12.625 C24.21263672 13.52863281 24.23777344 14.43226563 24.26367188 15.36328125 C24.32197916 20.68867963 24.00868964 24.39847467 21 29 C18.02645943 31.42288491 14.72889403 31.35291627 10.96875 31.26171875 C8.11071927 30.88178212 6.24182784 29.7662886 4 28 C2.77993703 25.55987406 2.8275546 23.85904125 2.75390625 21.1328125 C2.72103516 20.16472656 2.68816406 19.19664062 2.65429688 18.19921875 C2.59333541 16.15765836 2.53601499 14.11598585 2.48242188 12.07421875 C2.44826172 11.10355469 2.41410156 10.13289063 2.37890625 9.1328125 C2.34132202 7.80080811 2.34132202 7.80080811 2.30297852 6.44189453 C2.09162725 3.62712325 2.09162725 3.62712325 0 0 Z " fill="#7B7A7A" transform="translate(236,403)"/>
<path d="M0 0 C0.97066406 -0.00257813 1.94132812 -0.00515625 2.94140625 -0.0078125 C5.4375 0.125 5.4375 0.125 7.4375 1.125 C7.4375 3.435 7.4375 5.745 7.4375 8.125 C6.1175 8.125 4.7975 8.125 3.4375 8.125 C3.1075 7.135 2.7775 6.145 2.4375 5.125 C-0.41328091 4.35783149 -0.41328091 4.35783149 -3.5625 4.125 C-6.15480504 5.91279658 -6.54917605 7.08502815 -7.5625 10.125 C-7.95722765 15.02873192 -8.11482554 19.5907624 -6.4375 24.25 C-3.95411922 26.73338078 -2.00300866 26.89563276 1.4375 27.125 C1.61450355 22.52290775 1.54564567 20.34129134 -0.5625 16.125 C2.7375 16.125 6.0375 16.125 9.4375 16.125 C8.7775 21.075 8.1175 26.025 7.4375 31.125 C-6.75892857 31.66071429 -6.75892857 31.66071429 -10.3125 29.5 C-14.7470313 24.81910585 -14.95082923 19.78397185 -14.8203125 13.59375 C-14.35850869 9.1716287 -12.86246853 5.74996067 -10.0625 2.25 C-6.90061137 -0.12141647 -3.79156375 -0.01009737 0 0 Z " fill="#7B7A7A" transform="translate(437.5625,402.875)"/>
<path d="M0 0 C2.56314499 -0.08132187 5.12368418 -0.14064175 7.6875 -0.1875 C8.40873047 -0.21263672 9.12996094 -0.23777344 9.87304688 -0.26367188 C14.48087064 -0.32679275 17.31351222 0.20165268 21 3 C22.56977574 4.56977574 22.20737081 6.14196387 22.25 8.3125 C22.21636031 11.33526605 22.11296743 12.78482394 20.6875 15.5 C17.91876583 17.96109704 15.35630578 18.12059518 11.8125 18.0625 C9.9253125 18.0315625 9.9253125 18.0315625 8 18 C8.33 21.3 8.66 24.6 9 28 C9.66 28 10.32 28 11 28 C11 28.99 11 29.98 11 31 C7.37 31 3.74 31 0 31 C0 30.01 0 29.02 0 28 C0.66 27.67 1.32 27.34 2 27 C2.33 19.08 2.66 11.16 3 3 C2.01 2.67 1.02 2.34 0 2 C0 1.34 0 0.68 0 0 Z M8 3 C8 6.96 8 10.92 8 15 C11.43230448 14.73606499 11.43230448 14.73606499 15 14 C17.30787112 11.17537932 17.30787112 11.17537932 16.875 7.9375 C16.29873825 4.9453524 16.29873825 4.9453524 14.1875 3.625 C11.73815642 2.81685258 11.73815642 2.81685258 8 3 Z " fill="#7B7A7A" transform="translate(115,403)"/>
<path d="M0 0 C7.92 0 15.84 0 24 0 C24 2.97 24 5.94 24 9 C22.68 8.67 21.36 8.34 20 8 C19.67 7.01 19.34 6.02 19 5 C17.68 4.34 16.36 3.68 15 3 C15 11.25 15 19.5 15 28 C15.66 28 16.32 28 17 28 C17 28.99 17 29.98 17 31 C13.37 31 9.74 31 6 31 C6 30.01 6 29.02 6 28 C6.66 27.67 7.32 27.34 8 27 C8.33 19.08 8.66 11.16 9 3 C4.76421208 5.10390941 4.76421208 5.10390941 3 9 C2.01 9 1.02 9 0 9 C0 6.03 0 3.06 0 0 Z " fill="#7B7A7A" transform="translate(295,403)"/>
<path d="M0 0 C1 1 1 1 1.0625 4.5625 C1.041875 5.696875 1.02125 6.83125 1 8 C-1.51303805 7.56671758 -2.71516561 7.3219867 -4.4375 5.375 C-5.97392351 3.70931466 -5.97392351 3.70931466 -8.5625 4.0625 C-11.06528745 4.76139379 -11.06528745 4.76139379 -12.13671875 6.65234375 C-13.25466263 9.69254407 -13.26483735 12.26545733 -13.25 15.5 C-13.25515625 16.6240625 -13.2603125 17.748125 -13.265625 18.90625 C-13.00963991 21.88772344 -12.76931406 23.60286482 -11 26 C-7.43793339 26.81870185 -7.43793339 26.81870185 -4 27 C-3.34 25.35 -2.68 23.7 -2 22 C-1.01 22 -0.02 22 1 22 C1 24.64 1 27.28 1 30 C-4.20855011 31.73618337 -9.7613048 31.80974082 -14.9375 29.9375 C-19.40309895 25.74254341 -20.19049454 21.33365279 -20.375 15.4375 C-20.19111853 9.60126211 -18.75393404 6.14998367 -15.0625 1.625 C-10.27972433 -0.91279934 -5.31356333 -0.49712786 0 0 Z " fill="#7B7A7A" transform="translate(288,403)"/>
<path d="M0 0 C3.63 0 7.26 0 11 0 C10.34 1.32 9.68 2.64 9 4 C8.72620714 6.6104631 8.72620714 6.6104631 8.8046875 9.421875 C8.81113281 10.44667969 8.81757813 11.47148437 8.82421875 12.52734375 C8.84097656 13.59082031 8.85773438 14.65429688 8.875 15.75 C8.88402344 16.82894531 8.89304687 17.90789062 8.90234375 19.01953125 C8.92588695 21.67991278 8.95877201 24.33984336 9 27 C9.66 27.33 10.32 27.66 11 28 C11 28.99 11 29.98 11 31 C7.37 31 3.74 31 0 31 C0 30.01 0 29.02 0 28 C0.66 27.67 1.32 27.34 2 27 C2.33 19.08 2.66 11.16 3 3 C2.01 2.67 1.02 2.34 0 2 C0 1.34 0 0.68 0 0 Z " fill="#7B7A7A" transform="translate(337,403)"/>
</svg>
