<svg width="20" height="20" viewBox="0 0 20 20" fill="none" xmlns="http://www.w3.org/2000/svg">
<path d="M8.25 10.75C8.25 10.5511 8.32902 10.3603 8.46967 10.2197C8.61032 10.079 8.80109 10 9 10H11C11.1989 10 11.3897 10.079 11.5303 10.2197C11.671 10.3603 11.75 10.5511 11.75 10.75C11.75 10.9489 11.671 11.1397 11.5303 11.2803C11.3897 11.421 11.1989 11.5 11 11.5H9C8.80109 11.5 8.61032 11.421 8.46967 11.2803C8.32902 11.1397 8.25 10.9489 8.25 10.75Z" fill="black"/>
<path fill-rule="evenodd" clip-rule="evenodd" d="M5.25 3.5C4.78587 3.5 4.34075 3.68437 4.01256 4.01256C3.68437 4.34075 3.5 4.78587 3.5 5.25V7.25C3.5 7.845 3.797 8.37 4.25 8.686V13.75C4.25 14.4793 4.53973 15.1788 5.05546 15.6945C5.57118 16.2103 6.27065 16.5 7 16.5H13C13.7293 16.5 14.4288 16.2103 14.9445 15.6945C15.4603 15.1788 15.75 14.4793 15.75 13.75V8.686C16.203 8.37 16.5 7.845 16.5 7.25V5.25C16.5 4.78587 16.3156 4.34075 15.9874 4.01256C15.6592 3.68437 15.2141 3.5 14.75 3.5H5.25ZM14.25 9H5.75V13.75C5.75 14.44 6.31 15 7 15H13C13.69 15 14.25 14.44 14.25 13.75V9ZM5 5.25C5 5.1837 5.02634 5.12011 5.07322 5.07322C5.12011 5.02634 5.1837 5 5.25 5H14.75C14.8163 5 14.8799 5.02634 14.9268 5.07322C14.9737 5.12011 15 5.1837 15 5.25V7.25C15 7.3163 14.9737 7.37989 14.9268 7.42678C14.8799 7.47366 14.8163 7.5 14.75 7.5H5.25C5.1837 7.5 5.12011 7.47366 5.07322 7.42678C5.02634 7.37989 5 7.3163 5 7.25V5.25Z" fill="black"/>
</svg>
