<svg width="20" height="20" viewBox="0 0 20 20" fill="none" xmlns="http://www.w3.org/2000/svg">
<path fill-rule="evenodd" clip-rule="evenodd" d="M15.6553 4.34427C14.603 3.29197 12.8969 3.29198 11.8446 4.3443L11.2461 4.94281L11.2374 4.93406L10.1767 5.99472L10.1855 6.00349L4.30543 11.8837C3.78972 12.3995 3.5 13.0989 3.5 13.8283V15.7498C3.5 15.9488 3.57902 16.1395 3.71967 16.2802C3.86032 16.4208 4.05109 16.4998 4.25 16.4998L6.17155 16.4998C6.90091 16.4998 7.6004 16.2101 8.11613 15.6944L15.6554 8.15489C16.7076 7.1026 16.7076 5.39654 15.6553 4.34427ZM11.2462 7.06415L5.3661 12.9444C5.13169 13.1788 5 13.4967 5 13.8283L5 14.9998H6.17155C6.50308 14.9998 6.82103 14.8681 7.05545 14.6337L12.9355 8.75348L11.2462 7.06415ZM13.9961 7.6928L14.5947 7.09425C15.0612 6.62775 15.0612 5.87142 14.5947 5.40493C14.1282 4.93842 13.3718 4.93843 12.9053 5.40494L12.3068 6.00347L13.9961 7.6928Z" fill="#4A4A4A"/>
</svg>